Coordinates
version=1
nRows=6
nColumns=63
inDegrees=yes

Units are S.I. units (second, meters, Newtons, ...)
If the header above contains a line with 'inDegrees', this indicates whether rotational values are in degrees (yes) or radians (no).

endheader
time	pelvis_tilt	pelvis_list	pelvis_rotation	pelvis_tx	pelvis_ty	pelvis_tz	hip_flexion_r	hip_adduction_r	hip_rotation_r	knee_angle_r	knee_angle_r_beta	ankle_angle_r	subtalar_angle_r	mtp_angle_r	hip_flexion_l	hip_adduction_l	hip_rotation_l	knee_angle_l	knee_angle_l_beta	ankle_angle_l	subtalar_angle_l	mtp_angle_l	L5_S1_Flex_Ext	L5_S1_Lat_Bending	L5_S1_axial_rotation	L4_L5_Flex_Ext	L4_L5_Lat_Bending	L4_L5_axial_rotation	L3_L4_Flex_Ext	L3_L4_Lat_Bending	L3_L4_axial_rotation	L2_L3_Flex_Ext	L2_L3_Lat_Bending	L2_L3_axial_rotation	L1_L2_Flex_Ext	L1_L2_Lat_Bending	L1_L2_axial_rotation	L1_T12_Flex_Ext	L1_T12_Lat_Bending	L1_T12_axial_rotation	Abs_r3	Abs_r2	Abs_r1	Abs_t1	Abs_t2	neck_flexion	neck_bending	neck_rotation	arm_flex_r	arm_add_r	arm_rot_r	elbow_flex_r	pro_sup_r	wrist_flex_r	wrist_dev_r	arm_flex_l	arm_add_l	arm_rot_l	elbow_flex_l	pro_sup_l	wrist_flex_l	wrist_dev_l
1.389831	-1.498595	-7.989935	87.063915	0.209039	0.970390	0.134016	9.641668	-2.454137	-11.399115	16.295568	0.284411	32.744781	18.024788	0.000000	6.691010	1.483482	-14.196433	10.670443	0.186234	27.580850	7.853550	0.000000	0.025496	-0.135465	0.324769	0.047349	-0.180169	0.345067	0.041887	-0.329370	0.345067	0.029139	-0.329370	0.284173	0.023676	-0.276240	0.263875	0.014568	-0.209835	0.243577	0.182115	-1.532408	1.806267	0.000000	0.000000	22.925090	0.843028	-8.237574	1.577811	-28.605012	40.967046	68.861185	88.968362	-21.836915	-1.694635	-4.756496	-22.945053	30.821604	45.226904	85.450450	-22.941533	-14.391658
1.406780	-1.588751	-7.873266	87.094410	0.209016	0.971205	0.133895	9.711468	-2.619898	-11.506325	16.658472	0.290745	32.744717	18.020808	0.000000	6.578343	1.553842	-14.414805	10.716066	0.187031	27.603801	8.173012	0.000000	0.023289	-0.142154	0.299095	0.043251	-0.189065	0.317788	0.038262	-0.345634	0.317788	0.026617	-0.345634	0.261708	0.021627	-0.289881	0.243015	0.013308	-0.220197	0.224321	0.166354	-1.608076	1.663476	0.000000	0.000000	22.806335	1.174983	-7.844211	1.163947	-28.612274	39.878243	70.553930	88.912153	-20.633771	-1.062959	-5.307699	-23.154377	29.339451	47.497513	86.706868	-22.633600	-13.292475
1.423729	-1.645550	-7.768276	87.200702	0.208885	0.971972	0.133861	9.803844	-2.767975	-11.683672	17.048082	0.297545	32.730008	18.006679	0.000000	6.501821	1.591266	-14.607015	10.773938	0.188041	27.675071	8.569382	0.000000	0.022248	-0.145081	0.262179	0.041317	-0.192958	0.278566	0.036552	-0.352751	0.278566	0.025427	-0.352751	0.229407	0.020660	-0.295850	0.213021	0.012713	-0.224731	0.196634	0.158917	-1.641190	1.458163	0.000000	0.000000	22.711355	1.530244	-7.437961	0.784160	-28.576392	38.816980	72.163661	88.821169	-19.163622	-0.699119	-5.868319	-23.318973	27.744935	49.878809	87.766436	-22.072570	-12.194486
1.440678	-1.664632	-7.676423	87.386735	0.208611	0.972674	0.133888	9.906990	-2.893658	-11.933113	17.447048	0.304508	32.693498	17.977594	0.000000	6.461977	1.594031	-14.765890	10.846433	0.189306	27.800423	9.036097	0.000000	0.022653	-0.143357	0.212862	0.042068	-0.190665	0.226165	0.037216	-0.348559	0.226165	0.025890	-0.348559	0.186254	0.021035	-0.292334	0.172950	0.012944	-0.222060	0.159646	0.161806	-1.621685	1.183872	0.000000	0.000000	22.641980	1.901842	-7.027858	0.447696	-28.516558	37.841591	73.676256	88.707723	-17.593429	-0.668726	-6.412012	-23.455746	26.219648	52.326108	88.459756	-21.416517	-11.137838
1.457627	-1.646579	-7.600452	87.655373	0.208160	0.973305	0.133982	10.022787	-3.001868	-12.263366	17.858772	0.311694	32.626756	17.932414	0.000000	6.466054	1.566088	-14.879164	10.943500	0.191000	27.967642	9.538357	0.000000	0.024568	-0.136821	0.150334	0.045626	-0.181971	0.159729	0.040363	-0.332665	0.159729	0.028079	-0.332665	0.131542	0.022814	-0.279004	0.122146	0.014038	-0.211935	0.112750	0.175489	-1.547741	0.836111	0.000000	0.000000	22.599549	2.283423	-6.651607	0.137534	-28.432283	36.855893	75.107037	88.585811	-15.688969	-0.857200	-6.946098	-23.551179	24.694594	54.783051	88.857265	-20.463846	-10.104028
1.474576	-1.581740	-7.539837	87.954170	0.207577	0.973837	0.134081	10.141497	-3.072185	-12.635105	18.263802	0.318763	32.541843	17.897795	0.000000	6.488689	1.498422	-14.949801	11.039517	0.192676	28.173419	10.036694	0.000000	0.027986	-0.123543	0.086627	0.051974	-0.164312	0.092041	0.045979	-0.300382	0.092041	0.031986	-0.300382	0.075798	0.025988	-0.251928	0.070384	0.015991	-0.191368	0.064970	0.199904	-1.397541	0.481791	0.000000	0.000000	22.616182	2.668627	-6.303440	-0.190409	-28.362182	35.834622	76.534467	88.472673	-13.715342	-1.148652	-7.483443	-23.611580	23.224396	57.260748	88.977267	-19.358038	-9.026877
